<svg xmlns="http://www.w3.org/2000/svg" viewBox="0 0 64 64" role="img" aria-labelledby="title desc" fill="none">
  <title id="title">DevOps Lens</title>
  <desc id="desc">Stylized infinity loop with gear center</desc>
  <defs>
    <linearGradient id="g" x1="0" y1="0" x2="64" y2="64" gradientUnits="userSpaceOnUse">
      <stop stop-color="#38bdf8" offset="0" />
      <stop stop-color="#6366f1" offset="1" />
    </linearGradient>
  </defs>
  <path d="M18 22c-6 0-10 4.5-10 10s4 10 10 10c10.5 0 15-20 28-20 6 0 10 4.5 10 10s-4 10-10 10c-10.5 0-15-20-28-20Z" stroke="url(#g)" stroke-width="6" stroke-linecap="round" stroke-linejoin="round" />
  <circle cx="32" cy="32" r="8" fill="url(#g)" opacity="0.15" />
  <path d="M32 22v2.5m0 17v2.5m-7.5-12.5h-2.5m19 0h-2.5m-11-6.75 1.75 1.1m10.5 6.6 1.75 1.1m-14 0 1.75-1.1m10.5-6.6 1.75-1.1" stroke="#0f172a" stroke-width="2.5" stroke-linecap="round" />
</svg>
